<?xml version="1.0" encoding="utf-8"?>
<!-- Generator: Adobe Illustrator 27.7.0, SVG Export Plug-In . SVG Version: 6.00 Build 0)  -->
<svg version="1.1" id="Layer_1" xmlns="http://www.w3.org/2000/svg" xmlns:xlink="http://www.w3.org/1999/xlink" x="0px" y="0px"
	 viewBox="0 0 50 50" style="enable-background:new 0 0 50 50;" xml:space="preserve">
<style type="text/css">
	.st0{fill:#FFFFFF;}
	.st1{fill:#E6E6E6;}
	.st2{fill:#CCCCCC;}
	.st3{fill:#B3B3B3;}
	.st4{fill:#F2F2F2;}
	.st5{fill:#999999;}
</style>
<g>
	<rect x="15.6" y="3.1" class="st0" width="3.1" height="3.1"/>
	<rect x="18.8" y="3.1" class="st0" width="3.1" height="3.1"/>
	<rect x="21.9" y="3.1" class="st1" width="3.1" height="3.1"/>
	<rect x="25" y="3.1" class="st1" width="3.1" height="3.1"/>
	<rect x="28.1" y="3.1" class="st2" width="3.1" height="3.1"/>
	<rect x="31.2" y="3.1" class="st3" width="3.1" height="3.1"/>
	<rect x="9.4" y="6.2" class="st0" width="3.1" height="3.1"/>
	<rect x="12.5" y="6.2" class="st0" width="3.1" height="3.1"/>
	<rect x="15.6" y="6.2" class="st0" width="3.1" height="3.1"/>
	<rect x="18.8" y="6.2" class="st4" width="3.1" height="3.1"/>
	<rect x="21.9" y="6.2" class="st1" width="3.1" height="3.1"/>
	<rect x="25" y="6.2" class="st1" width="3.1" height="3.1"/>
	<rect x="28.1" y="6.2" class="st1" width="3.1" height="3.1"/>
	<rect x="31.2" y="6.2" class="st3" width="3.1" height="3.1"/>
	<rect x="34.4" y="6.2" class="st3" width="3.1" height="3.1"/>
	<rect x="37.5" y="6.2" class="st3" width="3.1" height="3.1"/>
	<rect x="6.2" y="9.4" class="st0" width="3.1" height="3.1"/>
	<rect x="9.4" y="9.4" class="st0" width="3.1" height="3.1"/>
	<rect x="12.5" y="9.4" class="st0" width="3.1" height="3.1"/>
	<rect x="15.6" y="9.4" class="st0" width="3.1" height="3.1"/>
	<rect x="18.8" y="9.4" class="st4" width="3.1" height="3.1"/>
	<rect x="21.9" y="9.4" class="st4" width="3.1" height="3.1"/>
	<rect x="25" y="9.4" class="st1" width="3.1" height="3.1"/>
	<rect x="28.1" y="9.4" class="st1" width="3.1" height="3.1"/>
	<rect x="31.2" y="9.4" class="st1" width="3.1" height="3.1"/>
	<rect x="34.4" y="9.4" class="st3" width="3.1" height="3.1"/>
	<rect x="37.5" y="9.4" class="st3" width="3.1" height="3.1"/>
	<rect x="40.6" y="9.4" class="st3" width="3.1" height="3.1"/>
	<rect x="6.2" y="12.5" class="st0" width="3.1" height="3.1"/>
	<rect x="9.4" y="12.5" class="st0" width="3.1" height="3.1"/>
	<rect x="12.5" y="12.5" class="st0" width="3.1" height="3.1"/>
	<rect x="15.6" y="12.5" class="st4" width="3.1" height="3.1"/>
	<rect x="18.8" y="12.5" class="st4" width="3.1" height="3.1"/>
	<rect x="21.9" y="12.5" class="st4" width="3.1" height="3.1"/>
	<rect x="25" y="12.5" class="st4" width="3.1" height="3.1"/>
	<rect x="28.1" y="12.5" class="st4" width="3.1" height="3.1"/>
	<rect x="31.2" y="12.5" class="st1" width="3.1" height="3.1"/>
	<rect x="34.4" y="12.5" class="st1" width="3.1" height="3.1"/>
	<rect x="37.5" y="12.5" class="st3" width="3.1" height="3.1"/>
	<rect x="40.6" y="12.5" class="st3" width="3.1" height="3.1"/>
	<rect x="3.1" y="15.6" class="st0" width="3.1" height="3.1"/>
	<rect x="6.2" y="15.6" class="st0" width="3.1" height="3.1"/>
	<rect x="9.4" y="15.6" class="st0" width="3.1" height="3.1"/>
	<rect x="12.5" y="15.6" class="st4" width="3.1" height="3.1"/>
	<rect x="15.6" y="15.6" class="st4" width="3.1" height="3.1"/>
	<rect x="18.8" y="15.6" class="st4" width="3.1" height="3.1"/>
	<rect x="21.9" y="15.6" class="st4" width="3.1" height="3.1"/>
	<rect x="25" y="15.6" class="st4" width="3.1" height="3.1"/>
	<rect x="28.1" y="15.6" class="st4" width="3.1" height="3.1"/>
	<rect x="31.2" y="15.6" class="st4" width="3.1" height="3.1"/>
	<rect x="34.4" y="15.6" class="st1" width="3.1" height="3.1"/>
	<rect x="37.5" y="15.6" class="st2" width="3.1" height="3.1"/>
	<rect x="40.6" y="15.6" class="st3" width="3.1" height="3.1"/>
	<rect x="43.8" y="15.6" class="st3" width="3.1" height="3.1"/>
	<rect x="3.1" y="18.8" class="st0" width="3.1" height="3.1"/>
	<rect x="6.2" y="18.8" class="st0" width="3.1" height="3.1"/>
	<rect x="18.8" y="18.8" class="st4" width="3.1" height="3.1"/>
	<rect x="21.9" y="18.8" class="st4" width="3.1" height="3.1"/>
	<rect x="34.4" y="18.8" class="st1" width="3.1" height="3.1"/>
	<rect x="37.5" y="18.8" class="st1" width="3.1" height="3.1"/>
	<rect x="40.6" y="18.8" class="st2" width="3.1" height="3.1"/>
	<rect x="43.8" y="18.8" class="st3" width="3.1" height="3.1"/>
	<rect x="3.1" y="21.9" class="st0" width="3.1" height="3.1"/>
	<rect x="6.2" y="21.9" class="st0" width="3.1" height="3.1"/>
	<rect x="9.4" y="21.9" class="st0" width="3.1" height="3.1"/>
	<rect x="12.5" y="21.9" class="st0" width="3.1" height="3.1"/>
	<rect x="15.6" y="21.9" class="st4" width="3.1" height="3.1"/>
	<rect x="18.8" y="21.9" class="st4" width="3.1" height="3.1"/>
	<rect x="21.9" y="21.9" class="st4" width="3.1" height="3.1"/>
	<rect x="25" y="21.9" class="st4" width="3.1" height="3.1"/>
	<rect x="28.1" y="21.9" class="st4" width="3.1" height="3.1"/>
	<rect x="31.2" y="21.9" class="st4" width="3.1" height="3.1"/>
	<rect x="34.4" y="21.9" class="st4" width="3.1" height="3.1"/>
	<rect x="37.5" y="21.9" class="st1" width="3.1" height="3.1"/>
	<rect x="40.6" y="21.9" class="st2" width="3.1" height="3.1"/>
	<rect x="43.8" y="21.9" class="st3" width="3.1" height="3.1"/>
	<rect x="3.1" y="25" class="st0" width="3.1" height="3.1"/>
	<rect x="6.2" y="25" class="st0" width="3.1" height="3.1"/>
	<rect x="9.4" y="25" class="st0" width="3.1" height="3.1"/>
	<rect x="12.5" y="25" class="st4" width="3.1" height="3.1"/>
	<rect x="15.6" y="25" class="st4" width="3.1" height="3.1"/>
	<rect x="18.8" y="25" class="st4" width="3.1" height="3.1"/>
	<rect x="21.9" y="25" class="st4" width="3.1" height="3.1"/>
	<rect x="25" y="25" class="st4" width="3.1" height="3.1"/>
	<rect x="28.1" y="25" class="st4" width="3.1" height="3.1"/>
	<rect x="31.2" y="25" class="st4" width="3.1" height="3.1"/>
	<rect x="34.4" y="25" class="st4" width="3.1" height="3.1"/>
	<rect x="37.5" y="25" class="st1" width="3.1" height="3.1"/>
	<rect x="40.6" y="25" class="st2" width="3.1" height="3.1"/>
	<rect x="43.8" y="25" class="st3" width="3.1" height="3.1"/>
	<rect x="3.1" y="28.1" class="st0" width="3.1" height="3.1"/>
	<rect x="6.2" y="28.1" class="st0" width="3.1" height="3.1"/>
	<rect x="9.4" y="28.1" class="st4" width="3.1" height="3.1"/>
	<rect x="12.5" y="28.1" class="st4" width="3.1" height="3.1"/>
	<rect x="28.1" y="28.1" class="st4" width="3.1" height="3.1"/>
	<rect x="31.2" y="28.1" class="st4" width="3.1" height="3.1"/>
	<rect x="34.4" y="28.1" class="st4" width="3.1" height="3.1"/>
	<rect x="37.5" y="28.1" class="st1" width="3.1" height="3.1"/>
	<rect x="40.6" y="28.1" class="st2" width="3.1" height="3.1"/>
	<rect x="43.8" y="28.1" class="st3" width="3.1" height="3.1"/>
	<rect x="3.1" y="31.2" class="st0" width="3.1" height="3.1"/>
	<rect x="6.2" y="31.2" class="st0" width="3.1" height="3.1"/>
	<rect x="9.4" y="31.2" class="st4" width="3.1" height="3.1"/>
	<rect x="12.5" y="31.2" class="st4" width="3.1" height="3.1"/>
	<rect x="15.6" y="31.2" class="st4" width="3.1" height="3.1"/>
	<rect x="18.8" y="31.2" class="st4" width="3.1" height="3.1"/>
	<rect x="21.9" y="31.2" class="st4" width="3.1" height="3.1"/>
	<rect x="25" y="31.2" class="st4" width="3.1" height="3.1"/>
	<rect x="28.1" y="31.2" class="st4" width="3.1" height="3.1"/>
	<rect x="31.2" y="31.2" class="st4" width="3.1" height="3.1"/>
	<rect x="34.4" y="31.2" class="st1" width="3.1" height="3.1"/>
	<rect x="37.5" y="31.2" class="st1" width="3.1" height="3.1"/>
	<rect x="40.6" y="31.2" class="st2" width="3.1" height="3.1"/>
	<rect x="43.8" y="31.2" class="st3" width="3.1" height="3.1"/>
	<rect x="3.1" y="34.4" class="st0" width="3.1" height="3.1"/>
	<rect x="6.2" y="34.4" class="st0" width="3.1" height="3.1"/>
	<rect x="9.4" y="34.4" class="st4" width="3.1" height="3.1"/>
	<rect x="12.5" y="34.4" class="st4" width="3.1" height="3.1"/>
	<rect x="15.6" y="34.4" class="st4" width="3.1" height="3.1"/>
	<rect x="18.8" y="34.4" class="st4" width="3.1" height="3.1"/>
	<rect x="21.9" y="34.4" class="st4" width="3.1" height="3.1"/>
	<rect x="25" y="34.4" class="st4" width="3.1" height="3.1"/>
	<rect x="28.1" y="34.4" class="st4" width="3.1" height="3.1"/>
	<rect x="31.2" y="34.4" class="st1" width="3.1" height="3.1"/>
	<rect x="34.4" y="34.4" class="st1" width="3.1" height="3.1"/>
	<rect x="37.5" y="34.4" class="st1" width="3.1" height="3.1"/>
	<rect x="40.6" y="34.4" class="st2" width="3.1" height="3.1"/>
	<rect x="43.8" y="34.4" class="st3" width="3.1" height="3.1"/>
	<rect x="3.1" y="37.5" class="st0" width="3.1" height="3.1"/>
	<rect x="6.2" y="37.5" class="st4" width="3.1" height="3.1"/>
	<rect x="9.4" y="37.5" class="st4" width="3.1" height="3.1"/>
	<rect x="12.5" y="37.5" class="st4" width="3.1" height="3.1"/>
	<rect x="15.6" y="37.5" class="st4" width="3.1" height="3.1"/>
	<rect x="18.8" y="37.5" class="st4" width="3.1" height="3.1"/>
	<rect x="21.9" y="37.5" class="st4" width="3.1" height="3.1"/>
	<rect x="25" y="37.5" class="st4" width="3.1" height="3.1"/>
	<rect x="28.1" y="37.5" class="st1" width="3.1" height="3.1"/>
	<rect x="31.2" y="37.5" class="st1" width="3.1" height="3.1"/>
	<rect x="34.4" y="37.5" class="st1" width="3.1" height="3.1"/>
	<rect x="37.5" y="37.5" class="st1" width="3.1" height="3.1"/>
	<rect x="40.6" y="37.5" class="st2" width="3.1" height="3.1"/>
	<rect x="43.8" y="37.5" class="st3" width="3.1" height="3.1"/>
	<rect x="3.1" y="40.6" class="st0" width="3.1" height="3.1"/>
	<rect x="6.2" y="40.6" class="st4" width="3.1" height="3.1"/>
	<rect x="9.4" y="40.6" class="st4" width="3.1" height="3.1"/>
	<rect x="12.5" y="40.6" class="st5" width="3.1" height="3.1"/>
	<rect x="18.8" y="40.6" class="st0" width="3.1" height="3.1"/>
	<rect x="21.9" y="40.6" class="st4" width="3.1" height="3.1"/>
	<rect x="25" y="40.6" class="st1" width="3.1" height="3.1"/>
	<rect x="28.1" y="40.6" class="st5" width="3.1" height="3.1"/>
	<rect x="34.4" y="40.6" class="st0" width="3.1" height="3.1"/>
	<rect x="37.5" y="40.6" class="st1" width="3.1" height="3.1"/>
	<rect x="40.6" y="40.6" class="st1" width="3.1" height="3.1"/>
	<rect x="43.8" y="40.6" class="st5" width="3.1" height="3.1"/>
	<rect x="6.2" y="43.8" class="st0" width="3.1" height="3.1"/>
	<rect x="9.4" y="43.8" class="st1" width="3.1" height="3.1"/>
	<rect x="21.9" y="43.8" class="st0" width="3.1" height="3.1"/>
	<rect x="25" y="43.8" class="st1" width="3.1" height="3.1"/>
	<rect x="37.5" y="43.8" class="st0" width="3.1" height="3.1"/>
	<rect x="40.6" y="43.8" class="st1" width="3.1" height="3.1"/>
	<g>
		<rect x="15.6" width="3.1" height="3.1"/>
		<rect x="18.8" width="3.1" height="3.1"/>
		<rect x="21.9" width="3.1" height="3.1"/>
		<rect x="25" width="3.1" height="3.1"/>
		<rect x="28.1" width="3.1" height="3.1"/>
		<rect x="31.2" width="3.1" height="3.1"/>
		<rect x="9.4" y="3.1" width="3.1" height="3.1"/>
		<rect x="12.5" y="3.1" width="3.1" height="3.1"/>
		<rect x="34.4" y="3.1" width="3.1" height="3.1"/>
		<rect x="37.5" y="3.1" width="3.1" height="3.1"/>
		<rect x="6.2" y="6.2" width="3.1" height="3.1"/>
		<rect x="40.6" y="6.2" width="3.1" height="3.1"/>
		<rect x="3.1" y="9.4" width="3.1" height="3.1"/>
		<rect x="43.8" y="9.4" width="3.1" height="3.1"/>
		<rect y="12.5" width="3.1" height="3.1"/>
		<rect x="3.1" y="12.5" width="3.1" height="3.1"/>
		<rect x="43.8" y="12.5" width="3.1" height="3.1"/>
		<rect x="46.9" y="12.5" width="3.1" height="3.1"/>
		<rect y="15.6" width="3.1" height="3.1"/>
		<rect x="46.9" y="15.6" width="3.1" height="3.1"/>
		<rect y="18.8" width="3.1" height="3.1"/>
		<rect x="9.4" y="18.8" width="3.1" height="3.1"/>
		<rect x="12.5" y="18.8" width="3.1" height="3.1"/>
		<rect x="15.6" y="18.8" width="3.1" height="3.1"/>
		<rect x="25" y="18.8" width="3.1" height="3.1"/>
		<rect x="28.1" y="18.8" width="3.1" height="3.1"/>
		<rect x="31.2" y="18.8" width="3.1" height="3.1"/>
		<rect x="46.9" y="18.8" width="3.1" height="3.1"/>
		<rect y="21.9" width="3.1" height="3.1"/>
		<rect x="46.9" y="21.9" width="3.1" height="3.1"/>
		<rect y="25" width="3.1" height="3.1"/>
		<rect x="46.9" y="25" width="3.1" height="3.1"/>
		<rect y="28.1" width="3.1" height="3.1"/>
		<rect x="46.9" y="28.1" width="3.1" height="3.1"/>
		<rect y="31.2" width="3.1" height="3.1"/>
		<rect x="46.9" y="31.2" width="3.1" height="3.1"/>
		<rect y="34.4" width="3.1" height="3.1"/>
		<rect x="46.9" y="34.4" width="3.1" height="3.1"/>
		<rect y="37.5" width="3.1" height="3.1"/>
		<rect x="46.9" y="37.5" width="3.1" height="3.1"/>
		<rect y="40.6" width="3.1" height="3.1"/>
		<rect x="15.6" y="40.6" width="3.1" height="3.1"/>
		<rect x="31.2" y="40.6" width="3.1" height="3.1"/>
		<rect x="46.9" y="40.6" width="3.1" height="3.1"/>
		<rect x="3.1" y="43.8" width="3.1" height="3.1"/>
		<rect x="12.5" y="43.8" width="3.1" height="3.1"/>
		<rect x="18.8" y="43.8" width="3.1" height="3.1"/>
		<rect x="28.1" y="43.8" width="3.1" height="3.1"/>
		<rect x="34.4" y="43.8" width="3.1" height="3.1"/>
		<rect x="43.8" y="43.8" width="3.1" height="3.1"/>
		<rect x="6.2" y="46.9" width="3.1" height="3.1"/>
		<rect x="9.4" y="46.9" width="3.1" height="3.1"/>
		<rect x="21.9" y="46.9" width="3.1" height="3.1"/>
		<rect x="25" y="46.9" width="3.1" height="3.1"/>
		<rect x="37.5" y="46.9" width="3.1" height="3.1"/>
		<rect x="40.6" y="46.9" width="3.1" height="3.1"/>
		<rect x="15.6" y="28.1" width="3.1" height="3.1"/>
		<rect x="18.8" y="28.1" width="3.1" height="3.1"/>
		<rect x="21.9" y="28.1" width="3.1" height="3.1"/>
		<rect x="25" y="28.1" width="3.1" height="3.1"/>
	</g>
</g>
</svg>
